# Exported using wow.export v0.1.47
o IC_arthas_iceshard04
mtllib ic_arthas_iceshard04.mtl
v -67.7044448852539 0 0.000002959455059681204
v -70.03302764892578 0 4.406107425689697
v -69.7598876953125 0 8.812727928161621
v -38.02334976196289 -28.377927780151367 35.706298828125
v -33.10126876831055 0.00013210423639975488 31.4605712890625
v -52.57217788696289 0 49.36856460571289
v -33.10126876831055 -48.865806579589844 31.460567474365234
v -33.10126876831055 0.00013210423639975488 31.4605712890625
v -38.02334976196289 -28.377927780151367 35.706298828125
v -32.808876037597656 -82.46761322021484 30.809595108032227
v -67.7044448852539 0 0.000002959455059681204
v -46.12693405151367 0.0003284094564151019 -0.0000023423751827067463
v -48.96790313720703 -28.377927780151367 0.0000016769471358202281
v -67.7044448852539 0 0.000002959455059681204
v -46.14765930175781 0.00031549300183542073 2.21804141998291
v -67.7044448852539 0 0.000002959455059681204
v -69.7598876953125 0 8.812727928161621
v -46.12693405151367 -48.8656120300293 -0.000002342376092201448
v -42.25251770019531 -82.46761322021484 6.913573997735512e-7
v -48.96790313720703 -28.377927780151367 0.0000016769471358202281
v -46.12693405151367 0.0003284094564151019 -0.0000023423751827067463
v -69.7598876953125 0 8.812727928161621
v -57.42502212524414 0 36.44303512573242
v -37.30849075317383 0.00016548582061659545 26.446611404418945
v -57.42502212524414 0 36.44303512573242
v -54.61073684692383 0 45.17794418334961
v -33.10126876831055 0.00013210423639975488 31.4605712890625
v -54.61073684692383 0 45.17794418334961
v -52.57217788696289 0 49.36856460571289
v -57.42502212524414 0 36.44303512573242
v -69.7598876953125 0 8.812727928161621
v -43.853755950927734 0.0002380446094321087 15.109883308410645
v -40.58110809326172 0.0002017652295762673 20.778244018554688
v -69.7598876953125 0 8.812727928161621
v -44.990325927734375 0.0002767580153886229 8.66405963897705
v -46.14766311645508 -48.86561584472656 2.21804141998291
v -46.12693405151367 -48.8656120300293 -0.000002342376092201448
v -46.12693405151367 0.0003284094564151019 -0.0000023423751827067463
v -46.14765930175781 0.00031549300183542073 2.21804141998291
v -44.990325927734375 -48.86565399169922 8.66405963897705
v -44.990325927734375 0.0002767580153886229 8.66405963897705
v -43.85375213623047 -48.86570358276367 15.109883308410645
v -43.853755950927734 0.0002380446094321087 15.109883308410645
v -40.58110809326172 -48.8657341003418 20.778244018554688
v -40.58110809326172 0.0002017652295762673 20.778244018554688
v -37.30849075317383 -48.86577224731445 26.446611404418945
v -37.30849075317383 0.00016548582061659545 26.446611404418945
v -33.10126876831055 -48.865806579589844 31.460567474365234
v -33.10126876831055 0.00013210423639975488 31.4605712890625
v -34.08108901977539 -82.46761322021484 28.1943416595459
v -32.808876037597656 -82.46761322021484 30.809595108032227
v -38.02334976196289 -28.377927780151367 35.706298828125
v -39.49775695800781 -28.377927780151367 32.675392150878906
v -35.08574295043945 -82.46761322021484 25.49129295349121
v -40.66208267211914 -28.377927780151367 29.54273796081543
v -52.57217788696289 0 49.36856460571289
v -54.61073684692383 0 45.17794418334961
v -56.22057342529297 0 40.846641540527344
v -41.5332145690918 -28.377927780151367 26.35778045654297
v -57.42502212524414 0 36.44303512573242
v -44.562984466552734 -28.377927780151367 24.49871063232422
v -61.61406707763672 0 33.872623443603516
v -45.90199279785156 -28.377927780151367 21.59984016418457
v -63.46541976928711 0 29.86456298828125
v -49.61502456665039 -28.377927780151367 19.643978118896484
v -68.59916687011719 0 27.160335540771484
v -50.5789680480957 -28.377927780151367 16.434106826782227
v -69.93194580078125 0 22.72226905822754
v -35.83740997314453 -82.46761322021484 22.74311637878418
v -38.45167922973633 -82.46761322021484 21.138988494873047
v -39.60706329345703 -82.46761322021484 18.637666702270508
v -42.81089401245117 -82.46761322021484 16.950037002563477
v -43.642642974853516 -82.46761322021484 14.180355072021484
v -44.8608512878418 -82.46761322021484 11.518312454223633
v -51.99079895019531 -28.377927780151367 13.348967552185059
v -44.76716995239258 -82.46761322021484 8.539796829223633
v -51.88222122192383 -28.377927780151367 9.897066116333008
v -43.53526306152344 -82.46761322021484 5.499784469604492
v -50.45452880859375 -28.377927780151367 6.373891353607178
v -43.70572280883789 -82.46761322021484 2.749732494354248
v -50.65208053588867 -28.377927780151367 3.186760663986206
v -42.25251770019531 -82.46761322021484 6.913573997735512e-7
v -48.96790313720703 -28.377927780151367 0.0000016769471358202281
v -71.88397216796875 0 18.456668853759766
v -71.7338638305664 0 13.683968544006348
v -69.7598876953125 0 8.812727928161621
v -70.03302764892578 0 4.406107425689697
v -67.7044448852539 0 0.000002959455059681204
v -57.42502212524414 0 36.44303512573242
v -56.22057342529297 0 40.846641540527344
v -54.61073684692383 0 45.17794418334961
v -69.93194580078125 0 22.72226905822754
v -68.59916687011719 0 27.160335540771484
v -63.46541976928711 0 29.86456298828125
v -71.7338638305664 0 13.683968544006348
v -71.88397216796875 0 18.456668853759766
v -61.61406707763672 0 33.872623443603516
vn 0 1 0
vn 0 1 0
vn 0 1 0
vn 0.6769312620162964 -0.007294642273336649 0.7360101342201233
vn 0.6769312620162964 -0.007294642273336649 0.7360101342201233
vn 0.6769312620162964 -0.007294642273336649 0.7360101342201233
vn 0.6322968602180481 -0.008632432669401169 0.774678111076355
vn 0.6531655192375183 0 0.757215142250061
vn 0.6517225503921509 -0.0006040399894118309 0.7584571838378906
vn 0.6300192475318909 -0.00956144742667675 0.7765206694602966
vn -2.4570914547439315e-7 -1.1703573221666375e-7 -1
vn -2.4570914547439315e-7 -1.1703573221666375e-7 -1
vn -2.4570914547439315e-7 -1.1703573221666375e-7 -1
vn -0.00001521998638054356 1 0.000005681134098267648
vn -0.00001521998638054356 1 0.000005681134098267648
vn -0.000014292442756413948 1 -0.0000033335270472889533
vn -0.000014292442756413948 1 -0.0000033335270472889533
vn -0.000011802021617768332 -0.0000014403707382371067 -1
vn -0.000012260959010745864 -0.0000015040104699437506 -1
vn -0.000001467815877731482 -7.355473563563919e-9 -1
vn -0.000001414771645613655 2.068004174480241e-14 -1
vn -0.000006732760539307492 1 0.00000300567580779898
vn -0.000006732760539307492 1 0.00000300567580779898
vn -0.0000124985426737112 1 0.000013616369869851042
vn -0.000005094835614727344 1 0.000001641497647142387
vn -0.000005094835614727344 1 0.000001641497647142387
vn -0.0000034707557006186107 1 0.00000957004613155732
vn -0.000004687476575782057 1 0.000002280255102959927
vn -0.000004687476575782057 1 0.000002280255102959927
vn -0.0000034707557006186107 1 0.00000957004613155732
vn -0.0000124985426737112 1 0.000013616369869851042
vn -0.000011130430721095763 1 0.000007988037395989522
vn -2.343746388078216e-7 1 0.000006535646207339596
vn -0.000011130430721095763 1 0.000007988037395989522
vn 9.845728072832571e-7 1 0.00000583235942031024
vn 0.9964612722396851 -9.424711272716475e-17 -0.08405312895774841
vn 0.9999563097953796 -1.9325214186795492e-16 0.009344861842691898
vn 0.9999563097953796 -5.580762186178357e-18 0.009344862774014473
vn 0.9964613318443298 1.4089522881732819e-9 -0.08405254036188126
vn 0.9845359921455383 1.6362106114442554e-9 -0.1751825213432312
vn 0.9845359921455383 1.6604921881935297e-9 -0.1751825362443924
vn 0.9396920800209045 1.3997825121236929e-9 -0.3420216739177704
vn 0.939692497253418 0 -0.3420204818248749
vn 0.8660253286361694 0 -0.5000001788139343
vn 0.8660253286361694 0 -0.5000001192092896
vn 0.8191519975662231 0 -0.5735765099525452
vn 0.8191523551940918 0 -0.573576033115387
vn 0.7660436630249023 0 -0.6427885293960571
vn 0.7660436630249023 0 -0.6427885293960571
vn -0.9127606749534607 -0.12365977466106415 0.3893279433250427
vn -0.892158031463623 -0.12529735267162323 0.43399834632873535
vn -0.8371585011482239 -0.3651299774646759 0.407241553068161
vn -0.8621022701263428 -0.3493296504020691 0.36708101630210876
vn -0.945342481136322 -0.12016460299491882 0.30313044786453247
vn -0.8953112363815308 -0.34111741185188293 0.2864554822444916
vn -0.7465032935142517 -0.5575490593910217 0.36314165592193604
vn -0.7643495202064514 -0.553091287612915 0.33145108819007874
vn -0.7986901998519897 -0.5420080423355103 0.2613832354545593
vn -0.7561862468719482 -0.3304591178894043 0.564782440662384
vn -0.661106288433075 -0.5511493682861328 0.5090901851654053
vn -0.689770519733429 -0.36291539669036865 0.626505434513092
vn -0.6315460205078125 -0.5574696660041809 0.5388665795326233
vn -0.6902371048927307 -0.3295612037181854 0.6441755294799805
vn -0.585250973701477 -0.5387160181999207 0.6060250401496887
vn -0.7025631070137024 -0.3725760877132416 0.6062937378883362
vn -0.6535005569458008 -0.56930011510849 0.4988330006599426
vn -0.8711986541748047 -0.36525627970695496 0.32802557945251465
vn -0.7603775262832642 -0.582300066947937 0.2876676321029663
vn -0.7950536012649536 -0.12340699881315231 0.5938522219657898
vn -0.7380488514900208 -0.12457878142595291 0.6631470322608948
vn -0.7252888083457947 -0.12151887267827988 0.677635133266449
vn -0.7589555382728577 -0.12727640569210052 0.6385822296142578
vn -0.9274553060531616 -0.13348862528800964 0.34929564595222473
vn -0.9715691208839417 -0.1346600502729416 0.19473078846931458
vn -0.905463457107544 -0.3840489983558655 0.18067163228988647
vn -0.9698373079299927 -0.12228300422430038 -0.21086111664772034
vn -0.9141901731491089 -0.35075685381889343 -0.20304164290428162
vn -0.9802803993225098 -0.12289872020483017 -0.15474560856819153
vn -0.9303850531578064 -0.3362504839897156 -0.1460110992193222
vn -0.9688913226127625 -0.12269129604101181 -0.21493370831012726
vn -0.9107433557510376 -0.3569474220275879 -0.2076898068189621
vn -0.8788463473320007 -0.10911138355731964 -0.4644607901573181
vn -0.8457126021385193 -0.29155266284942627 -0.44695326685905457
vn -0.7938050031661987 -0.5858494639396667 0.1632605791091919
vn -0.8192130923271179 -0.552618682384491 -0.15330523252487183
vn -0.8228892683982849 -0.5464150309562683 -0.15583278238773346
vn -0.8187351822853088 -0.5524388551712036 -0.15647372603416443
vn -0.763551652431488 -0.5041353106498718 -0.4035300612449646
vn 0 1 0
vn 0 1 0
vn 0 1 0
vn 0 1 0
vn 0 1 0
vn 0 1 0
vn 0 1 0
vn 0 1 0
vn 0 1 0
vt 0.9975504279136658 0.35169005393981934
vt 0.9351552724838257 0.2301081418991089
vt 0.8538239002227783 0.18550705909729004
vt 0.5831815004348755 0.7044816613197327
vt 0.9975504279136658 0.35169005393981934
vt -0.0014504790306091309 0.20924150943756104
vt 0.4289793372154236 0.12008106708526611
vt 0.9975504279136658 0.35169005393981934
vt 0.09502704441547394 0.0004994869232177734
vt -2.980232238769531e-7 0.7044816613197327
vt -2.980232238769531e-7 0.999496579170227
vt 0.8405786752700806 0.9901864528656006
vt 0.33927854895591736 0.7044816613197327
vt 0.9975504279136658 0.35169005393981934
vt 0.8007919788360596 0.9630552530288696
vt 0.9975504279136658 0.35169005393981934
vt 0.8538239002227783 0.18550705909729004
vt 0.5150178670883179 0.0004996061325073242
vt 0.14282257854938507 0.0004994869232177734
vt 0.33927854895591736 0.7044816613197327
vt -2.980232238769531e-7 0.0004994869232177734
vt 0.8538239002227783 0.18550705909729004
vt 0.2665865421295166 0.22017264366149902
vt 0.3002358675003052 0.934949517250061
vt 0.2665865421295166 0.22017264366149902
vt 0.08883482217788696 0.19901978969573975
vt 0.17934930324554443 0.9995005130767822
vt 0.08883482217788696 0.19901978969573975
vt -0.0014504790306091309 0.20924150943756104
vt 0.2665865421295166 0.22017264366149902
vt 0.8538239002227783 0.18550705909729004
vt 0.551977276802063 0.8768057227134705
vt 0.4261065721511841 0.9058780074119568
vt 0.8538239002227783 0.18550705909729004
vt 0.6763073801994324 0.9202364683151245
vt 0.8007919788360596 0.9630552530288696
vt 0.8405786752700806 0.9901864528656006
vt 0.8405786752700806 0.9901864528656006
vt 0.8007919788360596 0.9630552530288696
vt 0.6763073801994324 0.9202364683151245
vt 0.6763073801994324 0.9202364683151245
vt 0.551977276802063 0.8768057227134705
vt 0.551977276802063 0.8768057227134705
vt 0.4261065721511841 0.9058780074119568
vt 0.4261065721511841 0.9058780074119568
vt 0.3002358675003052 0.934949517250061
vt 0.3002358675003052 0.934949517250061
vt 0.17934930324554443 0.9995005130767822
vt 0.17934930324554443 0.9995005130767822
vt 0.5246920585632324 0.0004994869232177734
vt 0.5732272863388062 0.0004994869232177734
vt 0.5831815004348755 0.7044816613197327
vt 0.53408282995224 0.7044816613197327
vt 0.47625577449798584 0.0004994869232177734
vt 0.4850490689277649 0.7044816613197327
vt 0.5874677896499634 0.999496579170227
vt 0.5381320118904114 0.999496579170227
vt 0.48884594440460205 0.999496579170227
vt 0.436093270778656 0.7044816613197327
vt 0.43961936235427856 0.999496579170227
vt 0.38789278268814087 0.7044816613197327
vt 0.3909588158130646 0.999496579170227
vt 0.33927854895591736 0.7044816613197327
vt 0.34199029207229614 0.999496579170227
vt 0.2911694645881653 0.7044816613197327
vt 0.2934008538722992 0.999496579170227
vt 0.24256491661071777 0.7044816613197327
vt 0.24444200098514557 0.999496579170227
vt 0.42793866991996765 0.0004994869232177734
vt 0.38080230355262756 0.0004994869232177734
vt 0.3330119848251343 0.0004994869232177734
vt 0.28600984811782837 0.0004994869232177734
vt 0.23822712898254395 0.0004994869232177734
vt 0.1906135380268097 0.0004994869232177734
vt 0.1940699815750122 0.7044816613197327
vt 0.14282257854938507 0.0004994869232177734
vt 0.14546337723731995 0.7044816613197327
vt 0.09502704441547394 0.0004994869232177734
vt 0.09685474634170532 0.7044816613197327
vt 0.04750434681773186 0.0004994869232177734
vt 0.04842130094766617 0.7044816613197327
vt -2.980232238769531e-7 0.0004994869232177734
vt -2.980232238769531e-7 0.7044816613197327
vt 0.19556599855422974 0.999496579170227
vt 0.1466071456670761 0.999496579170227
vt 0.09764730930328369 0.999496579170227
vt 0.048819005489349365 0.999496579170227
vt -2.980232238769531e-7 0.999496579170227
vt 0.2665865421295166 0.22017264366149902
vt 0.17853426933288574 0.20316612720489502
vt 0.08883482217788696 0.19901978969573975
vt 0.6046241521835327 0.014120817184448242
vt 0.5150178670883179 0.0004996061325073242
vt 0.4289793372154236 0.12008106708526611
vt 0.7804738283157349 0.06885790824890137
vt 0.6956299543380737 0.007356047630310059
vt 0.3433430790901184 0.12694591283798218
g Geoset0
s 1
usemtl mat_jlo_azjnub_iciclebig
f 1/1/1 2/2/2 3/3/3
f 4/4/4 5/5/5 6/6/6
f 7/7/7 8/8/8 9/9/9
f 9/9/9 10/10/10 7/7/7
f 11/11/11 12/12/12 13/13/13
f 14/14/14 15/15/15 12/12/12
f 16/16/16 17/17/17 15/15/15
f 18/18/18 19/19/19 20/20/20
f 20/20/20 21/21/21 18/18/18
f 22/22/22 23/23/23 24/24/24
f 25/25/25 26/26/26 27/27/27
f 28/28/28 29/29/29 27/27/27
f 30/30/30 27/27/27 24/24/24
f 31/31/31 24/24/24 32/32/32
f 24/24/24 33/33/33 32/32/32
f 34/34/34 32/32/32 15/15/15
f 32/32/32 35/35/35 15/15/15
f 36/36/36 37/37/37 38/38/38
f 38/38/38 39/39/39 36/36/36
f 40/40/40 36/36/36 39/39/39
f 39/39/39 41/41/41 40/40/40
f 42/42/42 40/40/40 41/41/41
f 41/41/41 43/43/43 42/42/42
f 44/44/44 42/42/42 43/43/43
f 43/43/43 45/45/45 44/44/44
f 46/46/46 44/44/44 45/45/45
f 45/45/45 47/47/47 46/46/46
f 48/48/48 46/46/46 47/47/47
f 47/47/47 49/49/49 48/48/48
f 50/50/50 51/51/51 52/52/52
f 52/52/52 53/53/53 50/50/50
f 54/54/54 50/50/50 53/53/53
f 53/53/53 55/55/55 54/54/54
f 53/53/53 52/52/52 56/56/56
f 56/56/56 57/57/57 53/53/53
f 55/55/55 53/53/53 57/57/57
f 57/57/57 58/58/58 55/55/55
f 59/59/59 55/55/55 58/58/58
f 58/58/58 60/60/60 59/59/59
f 61/61/61 59/59/59 60/60/60
f 60/60/60 62/62/62 61/61/61
f 63/63/63 61/61/61 62/62/62
f 62/62/62 64/64/64 63/63/63
f 65/65/65 63/63/63 64/64/64
f 64/64/64 66/66/66 65/65/65
f 67/67/67 65/65/65 66/66/66
f 66/66/66 68/68/68 67/67/67
f 69/69/69 54/54/54 55/55/55
f 55/55/55 59/59/59 69/69/69
f 70/70/70 69/69/69 59/59/59
f 59/59/59 61/61/61 70/70/70
f 71/71/71 70/70/70 61/61/61
f 61/61/61 63/63/63 71/71/71
f 72/72/72 71/71/71 63/63/63
f 63/63/63 65/65/65 72/72/72
f 73/73/73 72/72/72 65/65/65
f 65/65/65 67/67/67 73/73/73
f 74/74/74 73/73/73 67/67/67
f 67/67/67 75/75/75 74/74/74
f 76/76/76 74/74/74 75/75/75
f 75/75/75 77/77/77 76/76/76
f 78/78/78 76/76/76 77/77/77
f 77/77/77 79/79/79 78/78/78
f 80/80/80 78/78/78 79/79/79
f 79/79/79 81/81/81 80/80/80
f 82/82/82 80/80/80 81/81/81
f 81/81/81 83/83/83 82/82/82
f 75/75/75 67/67/67 68/68/68
f 68/68/68 84/84/84 75/75/75
f 77/77/77 75/75/75 84/84/84
f 84/84/84 85/85/85 77/77/77
f 79/79/79 77/77/77 85/85/85
f 85/85/85 86/86/86 79/79/79
f 81/81/81 79/79/79 86/86/86
f 86/86/86 87/87/87 81/81/81
f 83/83/83 81/81/81 87/87/87
f 87/87/87 88/88/88 83/83/83
f 89/89/89 90/90/90 91/91/91
f 92/92/92 93/93/93 94/94/94
f 3/3/3 95/95/95 96/96/96
f 3/3/3 96/96/96 92/92/92
f 3/3/3 92/92/92 89/89/89
f 92/92/92 94/94/94 89/89/89
f 94/94/94 97/97/97 89/89/89