# Exported using wow.export v0.1.47
o IC_arthas_iceshard07
mtllib ic_arthas_iceshard07.mtl
v 12.75670051574707 0 -66.8730239868164
v 8.70477294921875 0 -68.90547180175781
v 4.349154472351074 0.000005335842161002802 -69.12812805175781
v -0.000007455713330273284 0.000005335841706255451 -71.4477310180664
v -0.000012566925761348102 -28.37791633605957 -51.67527389526367
v 0.12120359390974045 0.00008495724614476785 -47.43321990966797
v 12.75670051574707 0 -66.8730239868164
v 22.104394912719727 0 -68.0303726196289
v 17.747962951660156 0 -69.12379455566406
v 40.4976921081543 0 -55.74031066894531
v 27.337020874023438 0 -69.04546356201172
v 35.16791534423828 0 -63.97022247314453
v 31.57109260559082 0 -67.0920181274414
v 38.75216293334961 0 -61.06365203857422
v 12.75670051574707 0 -66.8730239868164
v 5.839382171630859 0.00007728855416644365 -46.47472381591797
v 22.104394912719727 0 -68.0303726196289
v 40.4976921081543 0 -55.74031066894531
v 22.104394912719727 0 -68.0303726196289
v 44.430965423583984 0 -53.707820892333984
v 40.4976921081543 0 -55.74031066894531
v 51.59410858154297 0 -48.450111389160156
v 33.27512741088867 0.000042745414248201996 -31.460567474365234
v 37.31594467163086 -28.377925872802734 -35.04201889038086
v 29.067914962768555 0.00004768962389789522 -36.47452926635742
v 46.6305046081543 0 -49.65645217895508
v 44.430965423583984 0 -53.707820892333984
v 51.59410858154297 0 -48.450111389160156
v 46.6305046081543 0 -49.65645217895508
v 51.59410858154297 0 -48.450111389160156
v 23.399566650390625 0.000054594234825344756 -39.74715042114258
v 44.430965423583984 0 -53.707820892333984
v 17.731176376342773 0.00006149891851237044 -43.019775390625
v 44.430965423583984 0 -53.707820892333984
v 11.842248916625977 0.00006926657806616277 -45.26765823364258
v 44.430965423583984 0 -53.707820892333984
v 44.430965423583984 0 -53.707820892333984
v 12.75670051574707 0 -66.8730239868164
v 4.349154472351074 0.000005335842161002802 -69.12812805175781
v 4.349154472351074 0.000005335842161002802 -69.12812805175781
v 0.12120359390974045 0.00008495724614476785 -47.43321990966797
v 4.349154472351074 0.000005335842161002802 -69.12812805175781
v 0.12120359390974045 -48.8658447265625 -47.43321990966797
v 0.12120359390974045 0.00008495724614476785 -47.43321990966797
v -0.000012566925761348102 -28.37791633605957 -51.67527389526367
v -0.000006502603355329484 -82.46760559082031 -44.5886116027832
v 33.27512741088867 -48.86589431762695 -31.460567474365234
v 32.19849395751953 -82.46760559082031 -30.23641586303711
v 37.31594467163086 -28.377925872802734 -35.04201889038086
v 33.27512741088867 0.000042745414248201996 -31.460567474365234
v 29.06791877746582 -48.865882873535156 -36.47452926635742
v 33.27512741088867 -48.86589431762695 -31.460567474365234
v 33.27512741088867 0.000042745414248201996 -31.460567474365234
v 29.067914962768555 0.00004768962389789522 -36.47452926635742
v 23.399568557739258 -48.86587905883789 -39.74715042114258
v 23.399566650390625 0.000054594234825344756 -39.74715042114258
v 17.731178283691406 -48.86587142944336 -43.019775390625
v 17.731176376342773 0.00006149891851237044 -43.019775390625
v 11.842249870300293 -48.865867614746094 -45.26765441894531
v 11.842248916625977 0.00006926657806616277 -45.26765823364258
v 5.839382171630859 -48.8658561706543 -46.4747314453125
v 5.839382171630859 0.00007728855416644365 -46.47472381591797
v 0.12120359390974045 -48.8658447265625 -47.43321990966797
v 0.12120359390974045 0.00008495724614476785 -47.43321990966797
v 3.145568609237671 -28.377925872802734 -49.99760818481445
v -0.000012566925761348102 -28.37791633605957 -51.67527389526367
v -0.000007455713330273284 0.000005335841706255451 -71.4477310180664
v 4.349154472351074 0.000005335842161002802 -69.12812805175781
v 6.295816898345947 -28.377927780151367 -49.83656311035156
v 8.70477294921875 0 -68.90547180175781
v 9.226410865783691 -28.377927780151367 -48.36656951904297
v 12.75670051574707 0 -66.8730239868164
v 12.83639144897461 -28.377927780151367 -49.99447250366211
v 15.987223625183105 -28.377927780151367 -49.203636169433594
v 13.794767379760742 -82.46761322021484 -42.455928802490234
v 11.076034545898438 -82.46761322021484 -43.1383056640625
v 7.961122512817383 -82.46761322021484 -41.73366165161133
v 5.432424068450928 -82.46761322021484 -43.00205993652344
v 2.714195728302002 -82.46760559082031 -43.14101028442383
v -0.000006502603355329484 -82.46760559082031 -44.5886116027832
v 17.747962951660156 0 -69.12379455566406
v 22.104394912719727 0 -68.0303726196289
v 19.771772384643555 -28.377927780151367 -49.93782424926758
v 27.337020874023438 0 -69.04546356201172
v 22.834104537963867 -28.377927780151367 -48.52496337890625
v 31.57109260559082 0 -67.0920181274414
v 25.435544967651367 -28.377927780151367 -46.2671012878418
v 35.16791534423828 0 -63.97022247314453
v 28.02788543701172 -28.377927780151367 -44.16489028930664
v 29.290353775024414 -28.377927780151367 -40.31473159790039
v 25.273529052734375 -82.46761322021484 -34.78602981567383
v 24.18419075012207 -82.46761322021484 -38.108192443847656
v 21.947364807128906 -82.46761322021484 -39.9221076965332
v 19.70267677307129 -82.46761322021484 -41.87031936645508
v 17.06031036376953 -82.46761322021484 -43.08943557739258
v 33.7259635925293 -28.377925872802734 -35.91452407836914
v 37.31594467163086 -28.377925872802734 -35.04201889038086
v 32.19849395751953 -82.46760559082031 -30.23641586303711
v 29.100839614868164 -82.46760559082031 -30.989253997802734
v 32.135135650634766 -28.377927780151367 -38.8447151184082
v 27.72817611694336 -82.46761322021484 -33.51761245727539
v 38.75216293334961 0 -61.06365203857422
v 40.4976921081543 0 -55.74031066894531
v 44.430965423583984 0 -53.707820892333984
v 46.6305046081543 0 -49.65645217895508
v 51.59410858154297 0 -48.450111389160156
vn 0.0000013640626548294676 1 -0.000002719417125263135
vn 0.0000013640626548294676 1 -0.000002719417125263135
vn 0.0000013640626548294676 1 -0.000002719417125263135
vn -0.9999811053276062 0.003516913391649723 0.005047302693128586
vn -0.9999811053276062 0.003516913391649723 0.005047302693128586
vn -0.9999811053276062 0.003516913391649723 0.005047302693128586
vn 0 1 0
vn 0 1 0
vn 0 1 0
vn 0 1 0
vn 0 1 0
vn 0 1 0
vn 0 1 0
vn 0 1 0
vn -4.896764949080534e-7 1 -0.000003955028205382405
vn -4.896764949080534e-7 1 -0.000003955028205382405
vn -4.896764949080534e-7 1 -0.000003955028205382405
vn 0.0000015927523691061651 1 -0.000002383711716902326
vn 0.0000015927523691061651 1 -0.000002383711716902326
vn 0.0000014696679500048049 1 -0.0000028441145332180895
vn 0.0000014696679500048049 1 -0.0000028441145332180895
vn 0.6799945831298828 0.0042920163832604885 0.7332045435905457
vn 0.6799945831298828 0.0042920163832604885 0.7332045435905457
vn 0.6799945831298828 0.0042920163832604885 0.7332045435905457
vn 0.000001858988525782479 1 -0.0000011100540859843022
vn 0.0000019292551769467536 1 -0.0000010474130931470427
vn 0.0000019292551769467536 1 -0.0000010474130931470427
vn 6.64191929899971e-7 1 -0.000002732886741796392
vn 6.64191929899971e-7 1 -0.000002732886741796392
vn 0.0000018265175185661064 1 -5.465402637128136e-7
vn 0.0000018589884120956413 1 -0.0000011100543133579777
vn 0.000001858988525782479 1 -0.0000011100540859843022
vn 0.0000017994876770899282 1 -0.000001258693146155565
vn 0.0000018589884120956413 1 -0.0000011100543133579777
vn 0.0000016812567764645792 1 -0.0000017151993461084203
vn 0.0000017994876770899282 1 -0.000001258693146155565
vn 0.0000016812567764645792 1 -0.0000017151993461084203
vn 0.00000151329652453569 1 -0.0000032757948247308377
vn 0.00000151329652453569 1 -0.0000032757948247308377
vn 0.0000018944019757327624 1 -0.0000033008655009325594
vn 0.0000018944019757327624 1 -0.0000033008655009325594
vn 0.000001773105054780899 1 -0.000003324503950352664
vn -0.9971774220466614 0.009520476683974266 0.07447554171085358
vn -0.9995920062065125 0 0.028563253581523895
vn -0.9995548725128174 0.0002631140814628452 0.029832961037755013
vn -0.9969348311424255 0.010163281112909317 0.07757318019866943
vn 0.6438652276992798 0.006758039351552725 0.765109121799469
vn 0.6421363949775696 0.007351777516305447 0.76655513048172
vn 0.662336528301239 0.00033505301689729095 0.7492063641548157
vn 0.6632884740829468 0 0.7483637928962708
vn -0.6427878141403198 0 0.7660442590713501
vn -0.7660444974899292 0 0.642787516117096
vn -0.7660444974899292 0 0.642787516117096
vn -0.6427876353263855 0 0.7660444378852844
vn -0.49999868869781494 0 0.8660261631011963
vn -0.49999871850013733 0 0.8660261631011963
vn -0.42966264486312866 0 0.9029895067214966
vn -0.4296625852584839 0 0.9029895067214966
vn -0.2778354287147522 0 0.9606286883354187
vn -0.27783524990081787 0 0.9606287479400635
vn -0.18125011026859283 0 0.9834370613098145
vn -0.18125008046627045 0 0.9834370613098145
vn -0.16531512141227722 0 0.986240804195404
vn -0.16531509160995483 0 0.986240804195404
vn 0.2477935254573822 -0.3371880054473877 -0.9082415103912354
vn 0.4412168264389038 -0.3477744162082672 -0.8272730112075806
vn 0.40089455246925354 -0.5237241983413696 -0.75166255235672
vn 0.2377036213874817 -0.5498692393302917 -0.8007127046585083
vn 0.24164699018001556 -0.36080148816108704 -0.9007935523986816
vn 0.2047264575958252 -0.5578398704528809 -0.8043020367622375
vn 0.024384424090385437 -0.32588890194892883 -0.94509357213974
vn -0.009944458492100239 -0.545353889465332 -0.8381469249725342
vn -0.10102814435958862 -0.35682663321495056 -0.928691565990448
vn 0.030961215496063232 -0.34091857075691223 -0.9395828247070312
vn 0.031852249056100845 -0.12499923259019852 -0.9916453957557678
vn -0.09738454967737198 -0.12203163653612137 -0.9877370595932007
vn 0.025845861062407494 -0.12227123975753784 -0.9921601414680481
vn 0.25528258085250854 -0.1252145916223526 -0.9587242007255554
vn 0.26182714104652405 -0.12342479079961777 -0.9571900963783264
vn 0.46748173236846924 -0.11483777314424515 -0.8765119314193726
vn -0.04539034143090248 -0.5529657602310181 -0.8319666981697083
vn 0.0015192923601716757 -0.5530575513839722 -0.8331416845321655
vn 0.09845124185085297 -0.37707841396331787 -0.9209339022636414
vn 0.1184435710310936 -0.5761209726333618 -0.8087371587753296
vn 0.5048125386238098 -0.37636497616767883 -0.7768614292144775
vn 0.436463326215744 -0.5828347206115723 -0.6854220628738403
vn 0.5991625785827637 -0.3608972430229187 -0.7146729230880737
vn 0.5277804732322693 -0.5724548101425171 -0.6274896264076233
vn 0.7811678647994995 -0.3505795896053314 -0.5165953636169434
vn 0.7150748372077942 -0.3279005289077759 -0.6173728108406067
vn 0.7512913346290588 -0.12208635360002518 -0.6485801935195923
vn 0.8228890299797058 -0.12064940482378006 -0.5552453398704529
vn 0.6370761394500732 -0.13020391762256622 -0.7597242593765259
vn 0.5391132831573486 -0.13352032005786896 -0.8315823078155518
vn 0.11216466128826141 -0.13034838438034058 -0.9851032495498657
vn 0.5781233906745911 -0.3289371430873871 -0.7467085719108582
vn 0.22262823581695557 -0.3336699306964874 -0.9160245656967163
vn 0.2347785383462906 -0.10803934931755066 -0.9660261869430542
vn 0.6075741648674011 -0.12339799851179123 -0.7846187353134155
vn 0.65339595079422 -0.3682718575000763 -0.6613997220993042
vn 0.6956998705863953 -0.12632563710212708 -0.7071375846862793
vn 0.6704369783401489 -0.5499542951583862 -0.49806076288223267
vn 0.6603304743766785 -0.5428550243377686 -0.5189144015312195
vn 0.5747768878936768 -0.5610460638999939 -0.5957003235816956
vn 0.49724969267845154 -0.5507509112358093 -0.6703851222991943
vn 0.20447002351284027 -0.5003840923309326 -0.8413131237030029
vt 0.7611185312271118 0.2686866521835327
vt 0.8413305282592773 0.26708269119262695
vt 0.9123334884643555 0.32136619091033936
vt 0.9995004534721375 0.31570369005203247
vt 3.774998188018799 0.7044816613197327
vt 0.4969621002674103 0.8803125619888306
vt 0.7611185312271118 0.2686866521835327
vt 0.6214220523834229 0.10551106929779053
vt 0.6991928815841675 0.1349503993988037
vt 0.23353981971740723 0.20025253295898438
vt 0.5460719466209412 0.0036864280700683594
vt 0.3821517527103424 0.039534568786621094
vt 0.4635757505893707 0.0004994869232177734
vt 0.3025973439216614 0.0726010799407959
vt 0.7611185312271118 0.2686866521835327
vt 0.7129014730453491 0.94725102186203
vt 0.6214220523834229 0.10551106929779053
vt 0.23353981971740723 0.20025253295898438
vt 0.6214220523834229 0.10551106929779053
vt 0.15521469712257385 0.20350933074951172
vt 0.23353981971740723 0.20025253295898438
vt 3.112696409225464 0.999496579170227
vt 0.16006797552108765 0.9938608407974243
vt 0.6991928815841675 0.1349503993988037
vt 0.2658783793449402 0.9093126058578491
vt 0.08880338072776794 0.288532018661499
vt 0.15521469712257385 0.20350933074951172
vt 0.0004995465278625488 0.25386255979537964
vt 0.08880338072776794 0.288532018661499
vt 0.0004995465278625488 0.25386255979537964
vt 0.3814198672771454 0.8948123455047607
vt 0.15521469712257385 0.20350933074951172
vt 0.4969621002674103 0.8803125619888306
vt 0.15521469712257385 0.20350933074951172
vt 0.6080626249313354 0.8981340527534485
vt 0.15521469712257385 0.20350933074951172
vt 0.15521469712257385 0.20350933074951172
vt 0.7611185312271118 0.2686866521835327
vt 0.9123334884643555 0.32136619091033936
vt 0.9123334884643555 0.32136619091033936
vt 0.811284065246582 0.9995003938674927
vt 0.9123334884643555 0.32136619091033936
vt 0.2658783793449402 0.9093126058578491
vt 0.4969621002674103 0.8803125619888306
vt 0.0004995465278625488 0.25386255979537964
vt 0.9123334884643555 0.32136619091033936
vt 0.9995004534721375 0.31570369005203247
vt 3.112696409225464 0.999496579170227
vt 0.6991928815841675 0.1349503993988037
vt 0.3814198672771454 0.8948123455047607
vt 0.2658783793449402 0.9093126058578491
vt 0.16006797552108765 0.9938608407974243
vt 0.16006797552108765 0.9938608407974243
vt 0.2658783793449402 0.9093126058578491
vt 0.3814198672771454 0.8948123455047607
vt 0.3814198672771454 0.8948123455047607
vt 0.4969621002674103 0.8803125619888306
vt 0.4969621002674103 0.8803125619888306
vt 0.6080626249313354 0.8981340527534485
vt 0.6080626249313354 0.8981340527534485
vt 0.7129014730453491 0.94725102186203
vt 0.7129014730453491 0.94725102186203
vt 0.811284065246582 0.9995003938674927
vt 0.811284065246582 0.9995003938674927
vt 3.7257556915283203 0.7044816613197327
vt 3.774998188018799 0.7044816613197327
vt 3.7684247493743896 0.999496579170227
vt 3.7189650535583496 0.999496579170227
vt 3.675554037094116 0.7044816613197327
vt 3.6687982082366943 0.999496579170227
vt 3.6258373260498047 0.7044816613197327
vt 3.618988037109375 0.999496579170227
vt 3.574309825897217 0.7044816613197327
vt 3.5238304138183594 0.7044816613197327
vt 3.538994789123535 0.0004994869232177734
vt 3.589712381362915 0.0004994869232177734
vt 3.642137289047241 0.0004994869232177734
vt 3.6916022300720215 0.0004994869232177734
vt 3.7418577671051025 0.0004994869232177734
vt 3.790557384490967 0.0004994869232177734
vt 3.5678484439849854 0.999496579170227
vt 3.51747989654541 0.999496579170227
vt 3.472440719604492 0.7044816613197327
vt 3.466445207595825 0.999496579170227
vt 3.4218838214874268 0.7044816613197327
vt 3.416022777557373 0.999496579170227
vt 3.3715474605560303 0.7044816613197327
vt 3.365762233734131 0.999496579170227
vt 3.3209726810455322 0.7044816613197327
vt 3.27113676071167 0.7044816613197327
vt 3.284872531890869 0.0004994869232177734
vt 3.334538459777832 0.0004994869232177734
vt 3.3854284286499023 0.0004994869232177734
vt 3.435922622680664 0.0004994869232177734
vt 3.4867773056030273 0.0004994869232177734
vt 3.1692962646484375 0.7044816613197327
vt 3.1174254417419434 0.7044816613197327
vt 3.1288633346557617 0.0004994869232177734
vt 3.1819310188293457 0.0004994869232177734
vt 3.2199039459228516 0.7044816613197327
vt 3.232883930206299 0.0004994869232177734
vt 3.315328598022461 0.999496579170227
vt 3.2654354572296143 0.999496579170227
vt 3.2145235538482666 0.999496579170227
vt 3.164069175720215 0.999496579170227
vt 3.112696409225464 0.999496579170227
g Geoset0
s 1
usemtl mat_jlo_azjnub_iciclebig
f 1/1/1 2/2/2 3/3/3
f 4/4/4 5/5/5 6/6/6
f 7/7/7 8/8/8 9/9/9
f 10/10/10 11/11/11 8/8/8
f 12/12/12 13/13/13 11/11/11
f 10/10/10 12/12/12 11/11/11
f 10/10/10 14/14/14 12/12/12
f 15/15/15 16/16/16 17/17/17
f 16/16/16 18/18/18 19/19/19
f 16/16/16 20/20/20 21/21/21
f 22/22/22 23/23/23 24/24/24
f 25/25/25 26/26/26 27/27/27
f 25/25/25 28/28/28 29/29/29
f 25/25/25 23/23/23 30/30/30
f 31/31/31 25/25/25 32/32/32
f 33/33/33 31/31/31 34/34/34
f 35/35/35 33/33/33 36/36/36
f 16/16/16 35/35/35 37/37/37
f 38/38/38 39/39/39 16/16/16
f 40/40/40 41/41/41 16/16/16
f 42/42/42 4/4/4 41/41/41
f 43/43/43 44/44/44 45/45/45
f 45/45/45 46/46/46 43/43/43
f 47/47/47 48/48/48 49/49/49
f 49/49/49 50/50/50 47/47/47
f 51/51/51 52/52/52 53/53/53
f 53/53/53 54/54/54 51/51/51
f 55/55/55 51/51/51 54/54/54
f 54/54/54 56/56/56 55/55/55
f 57/57/57 55/55/55 56/56/56
f 56/56/56 58/58/58 57/57/57
f 59/59/59 57/57/57 58/58/58
f 58/58/58 60/60/60 59/59/59
f 61/61/61 59/59/59 60/60/60
f 60/60/60 62/62/62 61/61/61
f 63/63/63 61/61/61 62/62/62
f 62/62/62 64/64/64 63/63/63
f 65/65/65 66/66/66 67/67/67
f 67/67/67 68/68/68 65/65/65
f 69/69/69 65/65/65 68/68/68
f 68/68/68 70/70/70 69/69/69
f 71/71/71 69/69/69 70/70/70
f 70/70/70 72/72/72 71/71/71
f 73/73/73 74/74/74 75/75/75
f 75/75/75 76/76/76 73/73/73
f 71/71/71 73/73/73 76/76/76
f 76/76/76 77/77/77 71/71/71
f 69/69/69 71/71/71 77/77/77
f 77/77/77 78/78/78 69/69/69
f 65/65/65 69/69/69 78/78/78
f 78/78/78 79/79/79 65/65/65
f 66/66/66 65/65/65 79/79/79
f 79/79/79 80/80/80 66/66/66
f 73/73/73 71/71/71 72/72/72
f 72/72/72 81/81/81 73/73/73
f 74/74/74 73/73/73 81/81/81
f 81/81/81 82/82/82 74/74/74
f 83/83/83 74/74/74 82/82/82
f 82/82/82 84/84/84 83/83/83
f 85/85/85 83/83/83 84/84/84
f 84/84/84 86/86/86 85/85/85
f 87/87/87 85/85/85 86/86/86
f 86/86/86 88/88/88 87/87/87
f 89/89/89 90/90/90 91/91/91
f 91/91/91 92/92/92 89/89/89
f 87/87/87 89/89/89 92/92/92
f 92/92/92 93/93/93 87/87/87
f 85/85/85 87/87/87 93/93/93
f 93/93/93 94/94/94 85/85/85
f 83/83/83 85/85/85 94/94/94
f 94/94/94 95/95/95 83/83/83
f 74/74/74 83/83/83 95/95/95
f 95/95/95 75/75/75 74/74/74
f 96/96/96 97/97/97 98/98/98
f 98/98/98 99/99/99 96/96/96
f 100/100/100 96/96/96 99/99/99
f 99/99/99 101/101/101 100/100/100
f 90/90/90 100/100/100 101/101/101
f 101/101/101 91/91/91 90/90/90
f 89/89/89 87/87/87 88/88/88
f 88/88/88 102/102/102 89/89/89
f 90/90/90 89/89/89 102/102/102
f 102/102/102 103/103/103 90/90/90
f 100/100/100 90/90/90 103/103/103
f 103/103/103 104/104/104 100/100/100
f 96/96/96 100/100/100 104/104/104
f 104/104/104 105/105/105 96/96/96
f 97/97/97 96/96/96 105/105/105
f 105/105/105 106/106/106 97/97/97