# Exported using wow.export v0.1.47
o IC_arthas_iceshard05
mtllib ic_arthas_iceshard05.mtl
v -52.57218551635742 0 -49.368553161621094
v -54.610740661621094 0 -45.17793655395508
v -56.22057342529297 0 -40.84663772583008
v -33.10127639770508 -48.865760803222656 -31.4605712890625
v -32.808876037597656 -82.46761322021484 -30.809595108032227
v -38.02334976196289 -28.377927780151367 -35.706298828125
v -33.10127639770508 0.0001754667900968343 -31.4605712890625
v -48.96790313720703 -28.377927780151367 0.0000016769471358202281
v -46.126930236816406 0.0003284094564151019 -0.0000023423751827067463
v -67.7044448852539 0 0.000002959455059681204
v -56.22057342529297 0 -40.84663772583008
v -57.42502975463867 0 -36.443031311035156
v -43.853763580322266 0.00024564823252148926 -15.109891891479492
v -57.42502975463867 0 -36.443031311035156
v -69.75989532470703 0 -8.812721252441406
v -46.126930236816406 -48.8656120300293 -0.000002342376092201448
v -46.126930236816406 0.0003284094564151019 -0.0000023423751827067463
v -48.96790313720703 -28.377927780151367 0.0000016769471358202281
v -42.25251770019531 -82.46761322021484 6.913573997735512e-7
v -52.57218551635742 0 -49.368553161621094
v -33.10127639770508 0.0001754667900968343 -31.4605712890625
v -38.02334976196289 -28.377927780151367 -35.706298828125
v -52.57218551635742 0 -49.368553161621094
v -37.30849075317383 0.00019756042456720024 -26.446619033813477
v -52.57218551635742 0 -49.368553161621094
v -56.22057342529297 0 -40.84663772583008
v -69.75989532470703 0 -8.812721252441406
v -67.7044448852539 0 0.000002959455059681204
v -46.12691879272461 0.0003156231250613928 -2.21824049949646
v -67.7044448852539 0 0.000002959455059681204
v -46.126930236816406 0.0003284094564151019 -0.0000023423751827067463
v -69.75989532470703 0 -8.812721252441406
v -44.99033737182617 0.00028063569334335625 -8.664066314697266
v -56.22057342529297 0 -40.84663772583008
v -40.581119537353516 0.00022160432126838714 -20.77825164794922
v -69.75989532470703 0 -8.812721252441406
v -70.03302764892578 0 -4.406101226806641
v -67.7044448852539 0 0.000002959455059681204
v -57.42502975463867 0 -36.443031311035156
v -61.61407470703125 0 -33.87261962890625
v -63.46541976928711 0 -29.864559173583984
v -69.93194580078125 0 -22.72226333618164
v -68.59916687011719 0 -27.160329818725586
v -71.7338638305664 0 -13.68396282196045
v -71.88397216796875 0 -18.456663131713867
v -37.30849075317383 -48.86573791503906 -26.446619033813477
v -33.10127639770508 -48.865760803222656 -31.4605712890625
v -33.10127639770508 0.0001754667900968343 -31.4605712890625
v -37.30849075317383 0.00019756042456720024 -26.446619033813477
v -40.581119537353516 -48.8657112121582 -20.77825164794922
v -40.581119537353516 0.00022160432126838714 -20.77825164794922
v -43.85376739501953 -48.86568832397461 -15.109893798828125
v -43.853763580322266 0.00024564823252148926 -15.109891891479492
v -44.99033737182617 -48.86565399169922 -8.664066314697266
v -44.99033737182617 0.00028063569334335625 -8.664066314697266
v -46.12691879272461 -48.86561584472656 -2.21824049949646
v -46.12691879272461 0.0003156231250613928 -2.21824049949646
v -46.126930236816406 -48.8656120300293 -0.000002342376092201448
v -46.126930236816406 0.0003284094564151019 -0.0000023423751827067463
v -43.70572280883789 -82.46761322021484 -2.7497308254241943
v -42.25251770019531 -82.46761322021484 6.913573997735512e-7
v -48.96790313720703 -28.377927780151367 0.0000016769471358202281
v -50.65208053588867 -28.377927780151367 -3.1867563724517822
v -43.53526306152344 -82.46761322021484 -5.499784469604492
v -50.45452880859375 -28.377927780151367 -6.3738884925842285
v -67.7044448852539 0 0.000002959455059681204
v -70.03302764892578 0 -4.406101226806641
v -69.75989532470703 0 -8.812721252441406
v -51.88222122192383 -28.377927780151367 -9.897063255310059
v -71.7338638305664 0 -13.68396282196045
v -51.99079895019531 -28.377927780151367 -13.34896469116211
v -71.88397216796875 0 -18.456663131713867
v -50.5789680480957 -28.377927780151367 -16.43410301208496
v -69.93194580078125 0 -22.72226333618164
v -49.61502456665039 -28.377927780151367 -19.643978118896484
v -68.59916687011719 0 -27.160329818725586
v -45.90199279785156 -28.377927780151367 -21.599838256835938
v -63.46541976928711 0 -29.864559173583984
v -44.76716995239258 -82.46761322021484 -8.539796829223633
v -44.8608512878418 -82.46761322021484 -11.518310546875
v -43.642642974853516 -82.46761322021484 -14.180355072021484
v -42.81089401245117 -82.46761322021484 -16.950037002563477
v -39.60706329345703 -82.46761322021484 -18.637672424316406
v -38.45168685913086 -82.46761322021484 -21.138994216918945
v -44.56298828125 -28.377927780151367 -24.498708724975586
v -35.83741760253906 -82.46761322021484 -22.743114471435547
v -41.53322219848633 -28.377927780151367 -26.357784271240234
v -35.08574295043945 -82.46761322021484 -25.49129295349121
v -40.66208267211914 -28.377927780151367 -29.54273796081543
v -34.08108901977539 -82.46761322021484 -28.1943416595459
v -39.49775695800781 -28.377927780151367 -32.67539978027344
v -32.808876037597656 -82.46761322021484 -30.809595108032227
v -38.02334976196289 -28.377927780151367 -35.706298828125
v -61.61407470703125 0 -33.87261962890625
v -57.42502975463867 0 -36.443031311035156
v -56.22057342529297 0 -40.84663772583008
v -54.610740661621094 0 -45.17793655395508
v -52.57218551635742 0 -49.368553161621094
vn 0 1 0
vn 0 1 0
vn 0 1 0
vn 0.6322976350784302 -0.00863229762762785 -0.7746774554252625
vn 0.6300200819969177 -0.009561300277709961 -0.7765199542045593
vn 0.6517230868339539 -0.0006040320149622858 -0.7584567666053772
vn 0.6531659960746765 0 -0.7572147846221924
vn 2.4570914547439315e-7 1.1703573221666375e-7 1
vn 2.4570914547439315e-7 1.1703573221666375e-7 1
vn 2.4570914547439315e-7 1.1703573221666375e-7 1
vn -0.00001265823175344849 1 -0.0000034622198654687963
vn -0.00001265823175344849 1 -0.0000034622198654687963
vn -0.000005012820565752918 1 -0.000007135930900403764
vn -0.000010636464139679447 1 -0.000004748385890707141
vn -0.000010636464139679447 1 -0.000004748385890707141
vn 0.000011802021617768332 0.000001440370624550269 1
vn 0.000001414771645613655 -2.068004174480241e-14 1
vn 0.0000014678005300083896 7.353352149408465e-9 1
vn 0.000012260959920240566 0.0000015040104699437506 1
vn 0.6769310832023621 -0.007294434122741222 -0.7360102534294128
vn 0.6769310832023621 -0.007294434122741222 -0.7360102534294128
vn 0.6769310832023621 -0.007294434122741222 -0.7360102534294128
vn -0.0000027989394766336773 1 -0.000006755024514859542
vn -0.0000027989394766336773 1 -0.000006755024514859542
vn -0.000007878153155616019 1 -0.0000033727810659911484
vn -0.000007878153155616019 1 -0.0000033727810659911484
vn -0.000014284884855442215 1 0.000003331764673930593
vn -0.000014284884855442215 1 0.000003331764673930593
vn -0.000011285344953648746 1 -0.000007417840151902055
vn -0.000015219989109027665 1 -0.000005764277830166975
vn -0.000015219989109027665 1 -0.000005764277830166975
vn -0.000011285344953648746 1 -0.000007417840151902055
vn -0.000003068572596021113 1 -0.000005968996902083745
vn -0.000005012820565752918 1 -0.000007135930900403764
vn 0.0000015545248288617586 1 -0.0000033442654512327863
vn 0 1 0
vn 0 1 0
vn 0 1 0
vn 0 1 0
vn 0 1 0
vn 0 1 0
vn 0 1 0
vn 0 1 0
vn 0 1 0
vn 0 1 0
vn 0.8191518783569336 0 0.5735766887664795
vn 0.766044020652771 0 0.6427881121635437
vn 0.7660439610481262 0 0.6427881717681885
vn 0.8191520571708679 0 0.5735763907432556
vn 0.8660249710083008 0 0.5000007152557373
vn 0.8660250306129456 0 0.5000006556510925
vn 0.9396920800209045 0 0.3420215845108032
vn 0.9396924376487732 0 0.34202057123184204
vn 0.9848076701164246 0 0.1736486703157425
vn 0.9848076701164246 0 0.1736486703157425
vn 0.9961943626403809 0 0.08715950697660446
vn 0.9961944222450256 -6.163272337814032e-20 0.08715900778770447
vn 1 -3.651662727226716e-21 0.000006114477855589939
vn 1 -1.2644764934686335e-19 0.000006114477855589939
vn -0.9688912034034729 -0.12269124388694763 0.21493405103683472
vn -0.8788464069366455 -0.10911120474338531 0.46446073055267334
vn -0.8457125425338745 -0.2915528118610382 0.44695335626602173
vn -0.9107434153556824 -0.3569474518299103 0.20768967270851135
vn -0.9802804589271545 -0.12289881706237793 0.1547454595565796
vn -0.9303850531578064 -0.3362504243850708 0.14601123332977295
vn -0.7635515928268433 -0.5041351914405823 0.4035302400588989
vn -0.8187351822853088 -0.5524388551712036 0.15647362172603607
vn -0.8228892087936401 -0.5464150905609131 0.15583285689353943
vn -0.9141902327537537 -0.35075685381889343 0.20304147899150848
vn -0.8192131519317627 -0.5526186227798462 0.15330524742603302
vn -0.905463457107544 -0.38404902815818787 -0.1806717813014984
vn -0.7938050031661987 -0.5858494639396667 -0.16326063871383667
vn -0.8711987137794495 -0.3652562201023102 -0.3280254304409027
vn -0.7603774666786194 -0.5823001265525818 -0.2876676619052887
vn -0.7025630474090576 -0.3725760579109192 -0.6062938570976257
vn -0.6535007357597351 -0.5693000555038452 -0.4988328814506531
vn -0.6902376413345337 -0.32956117391586304 -0.6441749930381775
vn -0.58525151014328 -0.5387160778045654 -0.606024444103241
vn -0.9698373079299927 -0.12228302657604218 0.2108612358570099
vn -0.9715691804885864 -0.134660005569458 -0.19473065435886383
vn -0.9274553060531616 -0.13348861038684845 -0.34929564595222473
vn -0.7589559555053711 -0.12727640569210052 -0.6385816931724548
vn -0.7252901196479797 -0.12151883542537689 -0.6776337027549744
vn -0.7380493879318237 -0.12457872927188873 -0.663146436214447
vn -0.6897715330123901 -0.36291539669036865 -0.6265043020248413
vn -0.795052170753479 -0.12340698391199112 -0.5938541293144226
vn -0.7561860680580139 -0.3304591178894043 -0.5647826194763184
vn -0.9453421235084534 -0.120164655148983 -0.3031315803527832
vn -0.8953110575675964 -0.34111735224723816 -0.2864559590816498
vn -0.9127606749534607 -0.12365978211164474 -0.38932791352272034
vn -0.8621023297309875 -0.34932971000671387 -0.3670808672904968
vn -0.8921581506729126 -0.12529733777046204 -0.43399813771247864
vn -0.8371579647064209 -0.36513012647628784 -0.40724262595176697
vn -0.6315462589263916 -0.5574696660041809 -0.5388662815093994
vn -0.661105751991272 -0.5511492490768433 -0.5090910196304321
vn -0.7986903190612793 -0.5420079827308655 -0.26138314604759216
vn -0.7643496990203857 -0.553091287612915 -0.3314507007598877
vn -0.7465032339096069 -0.5575491786003113 -0.36314162611961365
vt 0.0007310208166018128 0.14580297470092773
vt 0.09198388457298279 0.14595246315002441
vt 0.18203240633010864 0.16001152992248535
vt 0.40098249912261963 0.8711708784103394
vt 0.40098249912261963 0.8711708784103394
vt 0.6520377993583679 0.9131025671958923
vt 0.6520377993583679 0.9131025671958923
vt 4.999999523162842 0.7044816613197327
vt 0.775239109992981 0.9692418575286865
vt 0.9995003938674927 0.39601701498031616
vt 0.18203240633010864 0.16001152992248535
vt 0.26987385749816895 0.18639469146728516
vt 0.5288365483283997 0.856963038444519
vt 0.26987385749816895 0.18639469146728516
vt 0.8620426058769226 0.2183154821395874
vt 0.5288365483283997 0.856963038444519
vt 0.775239109992981 0.9692418575286865
vt 0.5288365483283997 0.856963038444519
vt 0.2731285095214844 0.885378360748291
vt 4.412531852722168 0.999496579170227
vt 0.1487695872783661 0.9346511363983154
vt 0.6520377993583679 0.9131025671958923
vt 0.0007310208166018128 0.14580297470092773
vt 0.2731285095214844 0.885378360748291
vt 0.0007310208166018128 0.14580297470092773
vt 0.18203240633010864 0.16001152992248535
vt 0.8620426058769226 0.2183154821395874
vt 0.9995003938674927 0.39601701498031616
vt 0.775239109992981 0.9692418575286865
vt 0.9995003938674927 0.39601701498031616
vt 0.8142796754837036 0.9995005130767822
vt 0.8620426058769226 0.2183154821395874
vt 0.6520377993583679 0.9131025671958923
vt 0.18203240633010864 0.16001152992248535
vt 0.40098249912261963 0.8711708784103394
vt 0.8620426058769226 0.2183154821395874
vt 0.941942572593689 0.2707870602607727
vt 0.9995003938674927 0.39601701498031616
vt 0.26987385749816895 0.18639469146728516
vt 0.3510710597038269 0.1042976975440979
vt 0.4375038146972656 0.1071927547454834
vt 0.6187149882316589 0.023763716220855713
vt 0.5291655659675598 0.0004994869232177734
vt 0.7932543754577637 0.09665882587432861
vt 0.7105445861816406 0.02735614776611328
vt 0.2731285095214844 0.885378360748291
vt 0.1487695872783661 0.9346511363983154
vt 0.1487695872783661 0.9346511363983154
vt 0.2731285095214844 0.885378360748291
vt 0.40098249912261963 0.8711708784103394
vt 0.40098249912261963 0.8711708784103394
vt 0.5288365483283997 0.856963038444519
vt 0.5288365483283997 0.856963038444519
vt 0.6520377993583679 0.9131025671958923
vt 0.6520377993583679 0.9131025671958923
vt 0.775239109992981 0.9692418575286865
vt 0.775239109992981 0.9692418575286865
vt 0.8142796754837036 0.9995005130767822
vt 0.8142796754837036 0.9995005130767822
vt 4.952495574951172 0.0004994869232177734
vt 4.999999523162842 0.0004994869232177734
vt 4.999999523162842 0.7044816613197327
vt 4.951578140258789 0.7044816613197327
vt 4.904972553253174 0.0004994869232177734
vt 4.903144836425781 0.7044816613197327
vt 4.999999523162842 0.999496579170227
vt 4.951180934906006 0.999496579170227
vt 4.902352333068848 0.999496579170227
vt 4.854536533355713 0.7044816613197327
vt 4.853392601013184 0.999496579170227
vt 4.805929660797119 0.7044816613197327
vt 4.804433822631836 0.999496579170227
vt 4.757434844970703 0.7044816613197327
vt 4.755558013916016 0.999496579170227
vt 4.708829879760742 0.7044816613197327
vt 4.70659875869751 0.999496579170227
vt 4.660721302032471 0.7044816613197327
vt 4.6580095291137695 0.999496579170227
vt 4.857177257537842 0.0004994869232177734
vt 4.809386253356934 0.0004994869232177734
vt 4.761772632598877 0.0004994869232177734
vt 4.713989734649658 0.0004994869232177734
vt 4.666987419128418 0.0004994869232177734
vt 4.619197368621826 0.0004994869232177734
vt 4.612106800079346 0.7044816613197327
vt 4.572061061859131 0.0004994869232177734
vt 4.563906669616699 0.7044816613197327
vt 4.523743629455566 0.0004994869232177734
vt 4.514950752258301 0.7044816613197327
vt 4.475307464599609 0.0004994869232177734
vt 4.465916633605957 0.7044816613197327
vt 4.426772117614746 0.0004994869232177734
vt 4.416818141937256 0.7044816613197327
vt 4.6090407371521 0.999496579170227
vt 4.560380458831787 0.999496579170227
vt 4.511153697967529 0.999496579170227
vt 4.461867809295654 0.999496579170227
vt 4.412531852722168 0.999496579170227
g Geoset0
s 1
usemtl mat_jlo_azjnub_iciclebig
f 1/1/1 2/2/2 3/3/3
f 4/4/4 5/5/5 6/6/6
f 6/6/6 7/7/7 4/4/4
f 8/8/8 9/9/9 10/10/10
f 11/11/11 12/12/12 13/13/13
f 14/14/14 15/15/15 13/13/13
f 16/16/16 17/17/17 18/18/18
f 18/18/18 19/19/19 16/16/16
f 20/20/20 21/21/21 22/22/22
f 21/21/21 23/23/23 24/24/24
f 25/25/25 26/26/26 24/24/24
f 27/27/27 28/28/28 29/29/29
f 30/30/30 31/31/31 29/29/29
f 32/32/32 29/29/29 13/13/13
f 29/29/29 33/33/33 13/13/13
f 34/34/34 13/13/13 24/24/24
f 13/13/13 35/35/35 24/24/24
f 36/36/36 37/37/37 38/38/38
f 39/39/39 40/40/40 41/41/41
f 39/39/39 41/41/41 42/42/42
f 41/41/41 43/43/43 42/42/42
f 39/39/39 42/42/42 36/36/36
f 42/42/42 44/44/44 36/36/36
f 42/42/42 45/45/45 44/44/44
f 46/46/46 47/47/47 48/48/48
f 48/48/48 49/49/49 46/46/46
f 50/50/50 46/46/46 49/49/49
f 49/49/49 51/51/51 50/50/50
f 52/52/52 50/50/50 51/51/51
f 51/51/51 53/53/53 52/52/52
f 54/54/54 52/52/52 53/53/53
f 53/53/53 55/55/55 54/54/54
f 56/56/56 54/54/54 55/55/55
f 55/55/55 57/57/57 56/56/56
f 58/58/58 56/56/56 57/57/57
f 57/57/57 59/59/59 58/58/58
f 60/60/60 61/61/61 62/62/62
f 62/62/62 63/63/63 60/60/60
f 64/64/64 60/60/60 63/63/63
f 63/63/63 65/65/65 64/64/64
f 63/63/63 62/62/62 66/66/66
f 66/66/66 67/67/67 63/63/63
f 65/65/65 63/63/63 67/67/67
f 67/67/67 68/68/68 65/65/65
f 69/69/69 65/65/65 68/68/68
f 68/68/68 70/70/70 69/69/69
f 71/71/71 69/69/69 70/70/70
f 70/70/70 72/72/72 71/71/71
f 73/73/73 71/71/71 72/72/72
f 72/72/72 74/74/74 73/73/73
f 75/75/75 73/73/73 74/74/74
f 74/74/74 76/76/76 75/75/75
f 77/77/77 75/75/75 76/76/76
f 76/76/76 78/78/78 77/77/77
f 79/79/79 64/64/64 65/65/65
f 65/65/65 69/69/69 79/79/79
f 80/80/80 79/79/79 69/69/69
f 69/69/69 71/71/71 80/80/80
f 81/81/81 80/80/80 71/71/71
f 71/71/71 73/73/73 81/81/81
f 82/82/82 81/81/81 73/73/73
f 73/73/73 75/75/75 82/82/82
f 83/83/83 82/82/82 75/75/75
f 75/75/75 77/77/77 83/83/83
f 84/84/84 83/83/83 77/77/77
f 77/77/77 85/85/85 84/84/84
f 86/86/86 84/84/84 85/85/85
f 85/85/85 87/87/87 86/86/86
f 88/88/88 86/86/86 87/87/87
f 87/87/87 89/89/89 88/88/88
f 90/90/90 88/88/88 89/89/89
f 89/89/89 91/91/91 90/90/90
f 92/92/92 90/90/90 91/91/91
f 91/91/91 93/93/93 92/92/92
f 85/85/85 77/77/77 78/78/78
f 78/78/78 94/94/94 85/85/85
f 87/87/87 85/85/85 94/94/94
f 94/94/94 95/95/95 87/87/87
f 89/89/89 87/87/87 95/95/95
f 95/95/95 96/96/96 89/89/89
f 91/91/91 89/89/89 96/96/96
f 96/96/96 97/97/97 91/91/91
f 93/93/93 91/91/91 97/97/97
f 97/97/97 98/98/98 93/93/93